<svg width="200" height="200" viewBox="0 0 200 200" fill="none" xmlns="http://www.w3.org/2000/svg">
<path d="M143.75 86.6518C142.849 84.3716 140.27 83.255 137.989 84.1554C135.709 85.057 134.591 87.6364 135.493 89.9166C137.749 95.6226 138.892 101.653 138.892 107.842C138.892 134.723 117.023 156.594 90.1402 156.594C63.256 156.594 41.3834 134.723 41.3834 107.842C41.3834 80.9598 63.256 59.0894 90.1402 59.0894C96.3502 59.0894 102.391 60.2402 108.095 62.5098C110.373 63.4174 112.955 62.304 113.861 60.0264C114.768 57.748 113.656 55.1664 111.378 54.26C104.625 51.5724 97.4792 50.21 90.1406 50.21C58.3604 50.21 32.5044 76.063 32.5044 107.841C32.5044 139.619 58.3592 165.472 90.1402 165.472C121.918 165.472 147.771 139.619 147.771 107.841C147.771 100.531 146.418 93.4018 143.75 86.6518Z" fill="#003263"/>
<path d="M171.121 84.624C170.446 82.2666 167.99 80.9042 165.631 81.5772C163.274 82.252 161.91 84.7098 162.584 87.0668C164.509 93.7934 165.485 100.783 165.485 107.841C165.485 149.389 131.685 183.191 90.1398 183.191C48.5918 183.191 14.7898 149.389 14.7898 107.841C14.7898 66.2924 48.5914 32.491 90.1398 32.491C97.2134 32.491 104.215 33.4712 110.949 35.4048C113.306 36.081 115.765 34.7198 116.441 32.3628C117.118 30.0058 115.756 27.5468 113.399 26.8706C105.869 24.708 98.0426 23.6114 90.1398 23.6114C43.6956 23.6118 5.9104 61.3968 5.9104 107.841C5.9104 154.286 43.6956 192.071 90.1398 192.071C136.581 192.071 174.364 154.286 174.364 107.841C174.364 99.9566 173.273 92.1452 171.121 84.624Z" fill="#003263"/>
<path d="M121.052 105.13C120.834 102.688 118.677 100.895 116.235 101.103C113.793 101.321 111.99 103.478 112.208 105.92C112.264 106.552 112.293 107.199 112.293 107.841C112.293 120.057 102.355 129.995 90.1394 129.995C77.921 129.995 67.9806 120.057 67.9806 107.841C67.9812 95.6224 77.9214 85.6824 90.1398 85.6824C90.8224 85.6824 91.4904 85.7122 92.1268 85.7706C94.5706 85.9948 96.7302 84.199 96.9556 81.7572C97.1806 79.3156 95.3836 77.1542 92.9422 76.9284C92.0366 76.845 91.0938 76.8028 90.1404 76.8028C73.026 76.8028 59.1022 90.7258 59.1022 107.841C59.1022 124.953 73.026 138.873 90.1404 138.873C107.252 138.873 121.173 124.953 121.173 107.841C121.172 106.936 121.132 106.024 121.052 105.13Z" fill="#EE3D40"/>
<path d="M193.41 33.7778C192.03 30.4472 188.809 28.2948 185.204 28.2948H169.724V12.8148C169.724 9.2092 167.571 5.98841 164.241 4.60921C160.912 3.23021 157.114 3.98621 154.565 6.53461L128.699 32.4008C126.185 34.9152 124.8 38.259 124.8 41.8166V66.9396L88.7188 103.021C86.9852 104.754 86.9852 107.566 88.7188 109.3C89.5854 110.167 90.722 110.6 91.858 110.6C92.994 110.6 94.1304 110.167 94.9972 109.3L131.079 73.2182H156.202C159.759 73.2182 163.103 71.8334 165.617 69.3194L191.484 43.4526C194.033 40.9036 194.788 37.1064 193.41 33.7778ZM133.679 41.8162C133.68 40.6308 134.141 39.5164 134.978 38.6796L160.844 12.8174V30.8958L133.679 58.061L133.679 41.8162ZM159.339 63.0404C158.514 63.8652 157.37 64.339 156.202 64.339H139.958L167.123 37.1746L185.202 37.1768L159.339 63.0404Z" fill="#EE3D40"/>
</svg>
