<svg width="200" height="201" viewBox="0 0 200 201" fill="none" xmlns="http://www.w3.org/2000/svg">
<path d="M166.935 56.5283C162.109 45.9104 157.462 35.9017 154.96 27.8947C152.994 22.8468 147.721 7.52916 132.618 7.52916C128.837 7.53208 125.119 8.4773 121.818 10.2749C118.518 12.0725 115.745 14.6627 113.762 17.799C105.593 15.9272 97.0884 15.9272 88.9187 17.799C86.9301 14.6683 84.1553 12.0827 80.8563 10.2859C77.5572 8.48906 73.8425 7.54033 70.0626 7.52916C58.1769 7.52916 53.4406 17.0157 49.151 25.3708L48.168 27.3725C39.2315 44.7789 12.4218 97.8686 12.4218 130.767V142.429C12.4218 152.816 16.6587 162.778 24.2004 170.123C31.742 177.467 41.9707 181.594 52.6363 181.594C63.3018 181.594 73.5305 177.467 81.0722 170.123C88.6139 162.778 92.8508 152.816 92.8508 142.429V94.5614H110.724V142.429C110.724 152.816 114.961 162.778 122.502 170.123C130.044 177.467 140.273 181.594 150.938 181.594C161.604 181.594 171.833 177.467 179.374 170.123C186.916 162.778 191.153 152.816 191.153 142.429V130.767C190.706 108.225 178.105 80.7232 166.935 56.5283ZM52.1895 172.89C46.3374 172.891 40.6027 171.292 35.6371 168.276C30.6715 165.26 26.6743 160.948 24.0997 155.83C21.5252 150.712 20.4766 144.993 21.0732 139.324C21.6698 133.654 23.8876 128.261 27.4745 123.758C31.0614 119.255 35.8736 115.822 41.3641 113.85C46.8546 111.878 52.803 111.445 58.5334 112.601C64.2638 113.757 69.5461 116.456 73.7801 120.39C78.014 124.325 81.0297 129.337 82.4844 134.857C83.1463 137.329 83.4767 139.874 83.4674 142.429C83.4674 150.508 80.172 158.256 74.3063 163.968C68.4405 169.681 60.4849 172.89 52.1895 172.89ZM83.4674 117.886C80.0126 113.724 75.7257 110.29 70.8669 107.79C62.9828 103.774 53.9437 102.45 45.1952 104.027C36.4467 105.605 28.4942 109.994 22.6095 116.493C30.0499 86.7259 41.4985 58.0469 56.6577 31.2019L57.6408 29.2002C61.3047 21.1932 64.0751 16.2324 70.0626 16.2324C73.6177 16.2324 77.0273 17.6078 79.5412 20.0561C82.0551 22.5043 83.4674 25.8249 83.4674 29.2872V117.886ZM110.277 85.8581H92.4039V69.409C98.3051 68.2783 104.376 68.2783 110.277 69.409V85.8581ZM110.277 29.2872V60.5318C104.36 59.5741 98.3211 59.5741 92.4039 60.5318V29.2872C92.4919 28.1865 92.4919 27.0807 92.4039 25.98C98.5367 24.7608 104.859 24.7608 110.992 25.98C110.664 27.0622 110.425 28.1681 110.277 29.2872ZM119.214 29.2872C119.214 25.8249 120.626 22.5043 123.14 20.0561C125.654 17.6078 129.063 16.2324 132.618 16.2324C136.64 16.2324 141.555 17.886 146.291 30.6797C149.151 39.3829 153.798 49.3046 158.803 60.0966C167.818 77.9922 174.915 96.7452 179.982 116.058C176.104 111.864 171.328 108.548 165.993 106.343C160.657 104.139 154.89 103.1 149.098 103.299C143.305 103.498 137.628 104.93 132.465 107.496C127.302 110.061 122.779 113.697 119.214 118.147V29.2872ZM150.492 172.89C144.305 172.89 138.258 171.104 133.114 167.757C127.971 164.41 123.962 159.652 121.594 154.086C119.227 148.52 118.608 142.395 119.815 136.486C121.021 130.577 124 125.15 128.375 120.89C132.749 116.63 138.322 113.728 144.389 112.553C150.457 111.378 156.746 111.981 162.461 114.287C168.176 116.592 173.061 120.496 176.498 125.506C179.935 130.515 181.769 136.404 181.769 142.429C181.769 150.508 178.474 158.256 172.608 163.968C166.743 169.681 158.787 172.89 150.492 172.89Z" fill="#003263"/>
<path d="M150.492 120.671C146.073 120.671 141.753 121.947 138.079 124.338C134.405 126.729 131.542 130.127 129.851 134.103C128.16 138.078 127.717 142.453 128.579 146.674C129.441 150.895 131.569 154.771 134.694 157.814C137.818 160.857 141.799 162.93 146.133 163.769C150.467 164.609 154.959 164.178 159.041 162.531C163.124 160.884 166.613 158.095 169.068 154.517C171.523 150.939 172.833 146.732 172.833 142.429C172.833 136.658 170.479 131.124 166.289 127.044C162.099 122.963 156.417 120.671 150.492 120.671ZM150.492 155.484C147.84 155.484 145.249 154.718 143.044 153.284C140.84 151.849 139.122 149.81 138.107 147.425C137.093 145.039 136.827 142.415 137.344 139.882C137.862 137.35 139.138 135.024 141.013 133.198C142.888 131.372 145.276 130.129 147.876 129.625C150.477 129.121 153.172 129.38 155.621 130.368C158.071 131.356 160.164 133.029 161.637 135.176C163.11 137.323 163.896 139.847 163.896 142.429C163.896 145.891 162.484 149.212 159.97 151.66C157.456 154.108 154.047 155.484 150.492 155.484Z" fill="#EE3D40"/>
<path d="M52.1895 120.671C47.7708 120.671 43.4513 121.947 39.7773 124.338C36.1032 126.729 33.2397 130.127 31.5487 134.103C29.8578 138.078 29.4153 142.453 30.2774 146.674C31.1394 150.895 33.2672 154.771 36.3917 157.814C39.5162 160.857 43.4971 162.93 47.8309 163.769C52.1647 164.609 56.6568 164.178 60.7391 162.531C64.8215 160.884 68.3107 158.095 70.7656 154.517C73.2206 150.939 74.5308 146.732 74.5308 142.429C74.5308 136.658 72.177 131.124 67.9872 127.044C63.7974 122.963 58.1148 120.671 52.1895 120.671ZM52.1895 155.484C49.5382 155.484 46.9466 154.718 44.7421 153.284C42.5377 151.849 40.8196 149.81 39.805 147.425C38.7904 145.039 38.525 142.415 39.0422 139.882C39.5594 137.35 40.8361 135.024 42.7108 133.198C44.5855 131.372 46.974 130.129 49.5743 129.625C52.1746 129.121 54.8699 129.38 57.3193 130.368C59.7687 131.356 61.8622 133.029 63.3352 135.176C64.8081 137.323 65.5943 139.847 65.5943 142.429C65.5943 145.891 64.182 149.212 61.6681 151.66C59.1542 154.108 55.7447 155.484 52.1895 155.484Z" fill="#EE3D40"/>
</svg>
