<svg width="200" height="200" viewBox="0 0 200 200" fill="none" xmlns="http://www.w3.org/2000/svg">
<g clip-path="url(#clip0_112_29)">
<path d="M159.375 152.125C136.975 152.125 118.75 136.704 118.75 117.75C118.75 116.023 120.147 114.625 121.875 114.625H196.875C198.602 114.625 200 116.023 200 117.75C200 136.704 181.775 152.125 159.375 152.125ZM125.21 120.875C127.118 134.919 141.711 145.875 159.375 145.875C177.038 145.875 191.632 134.919 193.539 120.875H125.21Z" fill="#646464"/>
<path d="M3.12227 120.875C2.66446 120.875 2.20079 120.774 1.76134 120.561C0.207826 119.807 -0.439048 117.938 0.314857 116.385L35.23 44.5097C35.9808 42.9593 37.8546 42.3124 39.405 43.0648C40.9585 43.8187 41.6054 45.6878 40.8515 47.2409L5.93633 119.116C5.39571 120.228 4.28204 120.875 3.12227 120.875Z" fill="#003263"/>
<path d="M78.1284 120.875C76.9686 120.875 75.8549 120.228 75.3147 119.116L40.3995 47.2409C39.6456 45.6874 40.2929 43.8183 41.846 43.0648C43.3995 42.314 45.2702 42.9593 46.021 44.5097L80.9362 116.385C81.6901 117.938 81.0428 119.807 79.4897 120.561C79.0499 120.774 78.5858 120.875 78.1284 120.875Z" fill="#003263"/>
<path d="M121.872 120.875C121.414 120.875 120.951 120.774 120.511 120.561C118.958 119.807 118.311 117.938 119.065 116.385L153.98 44.5097C154.734 42.9593 156.601 42.3124 158.155 43.0648C159.708 43.8187 160.355 45.6878 159.601 47.2409L124.686 119.116C124.145 120.228 123.032 120.875 121.872 120.875Z" fill="#003263"/>
<path d="M196.878 120.875C195.718 120.875 194.605 120.228 194.064 119.116L159.149 47.2409C158.395 45.6874 159.043 43.8183 160.596 43.0648C162.152 42.314 164.017 42.9593 164.771 44.5097L199.686 116.385C200.44 117.938 199.793 119.807 198.239 120.561C197.8 120.774 197.336 120.875 196.878 120.875Z" fill="#003263"/>
<path d="M34.3722 41.0808C33.8902 41.0808 33.3988 40.9694 32.941 40.7327C30.3683 39.4038 28.0183 37.687 25.9585 35.6288L19.6656 29.3347C18.4449 28.114 18.4449 26.1363 19.6656 24.9156C20.8863 23.6949 22.864 23.6949 24.0847 24.9156L30.3773 31.2081C31.9796 32.8105 33.8074 34.1456 35.8093 35.1784C37.3413 35.9702 37.9425 37.855 37.1523 39.3882C36.5968 40.4644 35.5042 41.0808 34.3722 41.0808Z" fill="#003263"/>
<path d="M46.8722 43.8441C45.2058 43.8441 43.8202 42.5273 43.7534 40.8472C43.6831 39.123 45.023 37.6671 46.7472 37.5972C49.6921 37.4765 52.5394 36.7734 55.2065 35.5081L89.2885 19.366C90.8447 18.6257 92.7096 19.2925 93.4479 20.8523C94.1893 22.4117 93.5213 24.2765 91.9615 25.0148L57.8827 41.1569C54.4526 42.7835 50.7905 43.687 47.003 43.8409C46.9605 43.8429 46.9148 43.8441 46.8722 43.8441Z" fill="#003263"/>
<path d="M165.628 41.0808C164.496 41.0808 163.404 40.4644 162.848 39.3886C162.058 37.855 162.659 35.9706 164.191 35.1788C166.193 34.1456 168.021 32.8105 169.623 31.207L175.916 24.916C177.136 23.6953 179.114 23.6953 180.335 24.916C181.556 26.1367 181.556 28.1144 180.335 29.3351L174.042 35.6277C171.983 37.6874 169.633 39.4042 167.06 40.7331C166.602 40.9695 166.11 41.0808 165.628 41.0808Z" fill="#003263"/>
<path d="M153.128 43.8441C153.086 43.8441 153.04 43.8425 152.997 43.8409C149.21 43.6866 145.548 42.7835 142.115 41.157L108.039 25.0148C106.479 24.2761 105.811 22.4117 106.553 20.8523C107.294 19.2929 109.162 18.6293 110.712 19.366L144.791 35.5081C147.461 36.773 150.308 37.4765 153.253 37.5972C154.977 37.6675 156.317 39.123 156.247 40.8472C156.18 42.5273 154.794 43.8441 153.128 43.8441Z" fill="#003263"/>
<path d="M93.7502 167.75V25.2371H106.25V167.75" fill="#003263"/>
<path d="M100 164.625C86.2155 164.625 75.0002 175.84 75.0002 189.625C75.0002 191.351 76.3979 192.75 78.1252 192.75C79.8526 192.75 81.2502 191.351 81.2502 189.625H118.75C118.75 191.351 120.148 192.75 121.875 192.75C123.602 192.75 125 191.351 125 189.625C125 175.84 113.785 164.625 100 164.625Z" fill="#003263"/>
<path d="M137.5 192.75H62.5003C60.773 192.75 59.3753 191.351 59.3753 189.625C59.3753 187.899 60.773 186.5 62.5003 186.5H137.5C139.227 186.5 140.625 187.899 140.625 189.625C140.625 191.351 139.227 192.75 137.5 192.75Z" fill="#EE3D40"/>
<path d="M78.1252 114.625H3.12539C1.39805 114.625 0.000396729 116.024 0.000396729 117.75C0.000396729 136.704 18.2254 152.125 40.6253 152.125C63.0253 152.125 81.2502 136.704 81.2502 117.75C81.2502 116.024 79.8526 114.625 78.1252 114.625Z" fill="#003263"/>
<path d="M3.12539 114.625C1.39805 114.625 0.000396729 116.024 0.000396729 117.75C0.000396729 136.704 18.2254 152.125 40.6253 152.125V114.625H3.12539Z" fill="#EE3D40"/>
<path d="M196.875 114.625H121.875C120.148 114.625 118.75 116.024 118.75 117.75C118.75 136.704 136.975 152.125 159.375 152.125C181.775 152.125 200 136.704 200 117.75C200 116.024 198.602 114.625 196.875 114.625Z" fill="#003263"/>
<path d="M121.875 114.625C120.148 114.625 118.75 116.024 118.75 117.75C118.75 136.704 136.975 152.125 159.375 152.125V114.625H121.875Z" fill="#EE3D40"/>
<path d="M40.6253 49.0003C45.803 49.0003 50.0003 44.803 50.0003 39.6253C50.0003 34.4477 45.803 30.2503 40.6253 30.2503C35.4477 30.2503 31.2503 34.4477 31.2503 39.6253C31.2503 44.803 35.4477 49.0003 40.6253 49.0003Z" fill="#EE3D40"/>
<path d="M159.375 49.0003C164.553 49.0003 168.75 44.803 168.75 39.6253C168.75 34.4477 164.553 30.2503 159.375 30.2503C154.197 30.2503 150 34.4477 150 39.6253C150 44.803 154.197 49.0003 159.375 49.0003Z" fill="#EE3D40"/>
<path d="M100 30.2503C106.904 30.2503 112.5 24.6539 112.5 17.7504C112.5 10.8468 106.904 5.25038 100 5.25038C93.0967 5.25038 87.5002 10.8468 87.5002 17.7504C87.5002 24.6539 93.0967 30.2503 100 30.2503Z" fill="#EE3D40"/>
<path d="M100 24.0003C103.452 24.0003 106.25 21.2021 106.25 17.7504C106.25 14.2986 103.452 11.5004 100 11.5004C96.5484 11.5004 93.7502 14.2986 93.7502 17.7504C93.7502 21.2021 96.5484 24.0003 100 24.0003Z" fill="#003263"/>
</g>
<defs>
<clipPath id="clip0_112_29">
<rect width="200" height="199.413" fill="white" transform="translate(0 0.0997314)"/>
</clipPath>
</defs>
</svg>
